<svg data-v-4aaccfd4="" width="20" height="21" fill="#ED1E79" xmlns="http://www.w3.org/2000/svg"><mask id="a" fill="#fff"><path d="M20 10.515c0 5.523-4.477 10-10 10s-10-4.477-10-10 4.477-10 10-10 10 4.477 10 10z"></path></mask><path d="M18 10.515a8 8 0 01-8 8v4c6.627 0 12-5.373 12-12h-4zm-8 8a8 8 0 01-8-8h-4c0 6.627 5.373 12 12 12v-4zm-8-8a8 8 0 018-8v-4c-6.627 0-12 5.372-12 12h4zm8-8a8 8 0 018 8h4c0-6.628-5.373-12-12-12v4z" mask="url(#a)"></path><path d="M6.957 9.684A1 1 0 105.543 11.1l1.414-1.415zm1.875 3.29l-.707.707a1 1 0 001.414 0l-.707-.707zm5.625-4.21a1 1 0 00-1.414-1.415l1.414 1.414zm-8.914 2.335l2.582 2.582 1.414-1.414-2.582-2.583L5.543 11.1zm3.996 2.582l4.918-4.918-1.414-1.414-4.918 4.918L9.54 13.68z"></path></svg>